<svg xmlns="http://www.w3.org/2000/svg" viewBox="0 0 64 64" width="64" height="64"><rect width="64" height="64" rx="14" fill="#0F172A"/><g transform="translate(6.434 11.592) scale(0.4437)"><path fill="#FFFFFF" fill-rule="evenodd" d="M31.31 88.12C29.17 87.90 28.65 87.80 26.25 87.13C15.66 84.19 6.90 74.64 4.90 63.88C4.08 59.41 4.06 56.52 4.84 52.09C6.67 41.76 14.13 32.86 24.06 29.17C26.45 28.29 27.30 28.07 31.12 27.39C31.85 27.27 64.46 27.19 65.28 27.31C66.32 27.47 66.62 27.97 66.15 28.80C65.95 29.14 50.63 44.52 50.03 44.98C48.99 45.77 49.67 45.71 41.00 45.75C33.68 45.79 33.52 45.79 32.78 45.92C25.82 47.19 21.33 54.30 23.28 61.01C24.40 64.90 27.37 67.94 31.28 69.21C33.22 69.84 31.12 69.77 50.41 69.81C68.98 69.85 67.71 69.82 68.11 70.22C68.37 70.48 68.38 70.78 68.14 71.25C67.93 71.68 64.41 75.26 62.75 76.74C62.15 77.27 59.48 79.88 56.81 82.54C51.73 87.60 51.58 87.74 50.75 88.02C50.32 88.17 32.67 88.26 31.31 88.12ZM49.12 64.69C47.98 64.49 47.84 63.82 48.72 62.75C49.21 62.16 64.16 47.25 64.53 46.99C64.90 46.73 65.28 46.53 65.68 46.39C65.94 46.30 66.82 46.28 73.91 46.25C80.89 46.22 81.91 46.20 82.44 46.11C87.00 45.31 90.99 41.71 92.13 37.36C93.79 30.98 90.28 24.68 83.97 22.72C82.22 22.18 84.12 22.23 65.06 22.19C52.84 22.16 48.04 22.14 47.90 22.09C47.14 21.81 46.98 21.42 47.33 20.72C47.51 20.34 63.15 4.72 63.68 4.38C64.59 3.80 63.71 3.85 73.94 3.82C85.99 3.80 86.10 3.81 90.54 5.34C96.88 7.52 102.19 11.59 105.92 17.13C108.41 20.83 110.22 25.56 110.85 30.00C110.98 30.95 111.05 35.80 110.94 37.23C110.77 39.73 110.05 42.67 108.87 45.75C105.36 54.95 96.46 62.32 86.66 64.15C83.31 64.78 85.56 64.72 66.44 64.73C57.07 64.73 49.28 64.71 49.12 64.69Z"/></g></svg>